<?xml version="1.0" encoding="UTF-8"?>
<svg version="1.1" xmlns="http://www.w3.org/2000/svg" width="52" height="52">
<path d="M0 0 C0.81146484 0.44907715 1.62292969 0.8981543 2.45898438 1.36083984 C3.2772168 1.80339111 4.09544922 2.24594238 4.93847656 2.7019043 C7.70561159 4.34255539 10.46017204 6.00216581 13.20898438 7.67333984 C14.17964844 8.24246094 15.1503125 8.81158203 16.15039062 9.39794922 C17.07207031 9.95933594 17.99375 10.52072266 18.94335938 11.09912109 C19.78608398 11.60483643 20.62880859 12.11055176 21.49707031 12.6315918 C23.91868822 14.7660268 24.15970232 16.20529308 24.45898438 19.36083984 C23.46898437 19.69083984 22.47898438 20.02083984 21.45898438 20.36083984 C21.45898438 21.02083984 21.45898438 21.68083984 21.45898438 22.36083984 C22.44898438 22.69083984 23.43898437 23.02083984 24.45898438 23.36083984 C23.96398438 25.83583984 23.96398438 25.83583984 23.45898438 28.36083984 C22.79898438 28.36083984 22.13898437 28.36083984 21.45898438 28.36083984 C21.45898438 29.02083984 21.45898438 29.68083984 21.45898438 30.36083984 C22.44898438 30.69083984 23.43898437 31.02083984 24.45898438 31.36083984 C24.15486904 34.45464111 23.95964387 35.92978423 21.55712891 37.99829102 C20.33678955 38.69402222 20.33678955 38.69402222 19.09179688 39.40380859 C18.20621094 39.92007813 17.320625 40.43634766 16.40820312 40.96826172 C15.47621094 41.4896875 14.54421875 42.01111328 13.58398438 42.54833984 C11.7531719 43.60418498 9.92243934 44.66016871 8.09179688 45.71630859 C7.27598145 46.17674561 6.46016602 46.63718262 5.61962891 47.11157227 C3.85982591 48.12907644 2.15036505 49.23325273 0.45898438 50.36083984 C-5.69906286 50.35152358 -10.27602271 46.68584666 -15.22851562 43.42333984 C-16.08251953 42.87226562 -16.93652344 42.32119141 -17.81640625 41.75341797 C-21.07461329 39.64697304 -24.3128141 37.5129742 -27.54101562 35.36083984 C-27.54101562 31.36083984 -27.54101562 31.36083984 -26.04101562 29.61083984 C-25.54601562 29.19833984 -25.05101562 28.78583984 -24.54101562 28.36083984 C-25.53101563 28.03083984 -26.52101563 27.70083984 -27.54101562 27.36083984 C-27.21101563 25.71083984 -26.88101562 24.06083984 -26.54101562 22.36083984 C-25.88101562 22.36083984 -25.22101562 22.36083984 -24.54101562 22.36083984 C-24.54101562 21.70083984 -24.54101562 21.04083984 -24.54101562 20.36083984 C-25.53101563 20.03083984 -26.52101563 19.70083984 -27.54101562 19.36083984 C-27.27524829 15.96276219 -26.90220829 14.67989862 -24.30371094 12.38452148 C-21.14378485 10.37788955 -17.98264827 8.37932305 -14.79101562 6.42333984 C-13.69273438 5.71371094 -12.59445312 5.00408203 -11.46289062 4.27294922 C-10.40070312 3.61230469 -9.33851562 2.95166016 -8.24414062 2.27099609 C-7.2712207 1.66392822 -6.29830078 1.05686035 -5.29589844 0.43139648 C-2.54101562 -0.63916016 -2.54101562 -0.63916016 0 0 Z " fill="#B6B6B6" transform="translate(27.541015625,1.63916015625)"/>
<path d="M0 0 C0.81146484 0.45197754 1.62292969 0.90395508 2.45898438 1.36962891 C3.28245361 1.82265381 4.10592285 2.27567871 4.9543457 2.74243164 C7.73373819 4.41951104 10.50576865 6.10757895 13.27148438 7.80712891 C14.74004883 8.68594727 14.74004883 8.68594727 16.23828125 9.58251953 C17.16318359 10.15035156 18.08808594 10.71818359 19.04101562 11.30322266 C19.88897705 11.81941162 20.73693848 12.33560059 21.6105957 12.86743164 C22.5255481 13.61101929 22.5255481 13.61101929 23.45898438 14.36962891 C23.45898438 15.35962891 23.45898438 16.34962891 23.45898438 17.36962891 C21.6706543 18.7800293 21.6706543 18.7800293 19.18945312 20.21728516 C18.30064453 20.74 17.41183594 21.26271484 16.49609375 21.80126953 C15.55572266 22.33945312 14.61535156 22.87763672 13.64648438 23.43212891 C11.80644706 24.50601606 9.96659546 25.58022151 8.12695312 26.65478516 C6.89368286 27.36453491 6.89368286 27.36453491 5.63549805 28.08862305 C3.87489373 29.12484188 2.15878738 30.2364269 0.45898438 31.36962891 C-5.72258178 31.36962891 -10.32625887 27.64923991 -15.29101562 24.36962891 C-16.99382078 23.26496906 -18.69693079 22.16077894 -20.40039062 21.05712891 C-21.14772461 20.56599609 -21.89505859 20.07486328 -22.66503906 19.56884766 C-24.52310771 18.33485784 -24.52310771 18.33485784 -26.54101562 17.36962891 C-26.54101562 16.37962891 -26.54101562 15.38962891 -26.54101562 14.36962891 C-23.42888388 11.80629704 -19.98398569 9.75136001 -16.56176758 7.62475586 C-14.86492455 6.56425928 -13.18815227 5.47186874 -11.51171875 4.37939453 C-10.44501953 3.70972656 -9.37832031 3.04005859 -8.27929688 2.35009766 C-7.30001221 1.73030029 -6.32072754 1.11050293 -5.31176758 0.47192383 C-2.54101562 -0.63037109 -2.54101562 -0.63037109 0 0 Z " fill="#DBDBDB" transform="translate(27.541015625,1.63037109375)"/>
<path d="M0 0 C0.33 0.66 0.66 1.32 1 2 C1.66128906 2.25394531 2.32257813 2.50789063 3.00390625 2.76953125 C5.68279533 3.8697269 7.79549998 5.07270392 10.21484375 6.63671875 C10.98376953 7.13107422 11.75269531 7.62542969 12.54492188 8.13476562 C14.1426082 9.17163145 15.73379464 10.21858084 17.31835938 11.27539062 C21.81791648 14.15399392 21.81791648 14.15399392 26.9609375 15.20703125 C31.57721279 13.37357487 35.56056402 10.74076544 39.6875 8 C41.37713723 6.89312821 43.0684719 5.78884202 44.76171875 4.6875 C45.8748645 3.95080078 45.8748645 3.95080078 47.01049805 3.19921875 C49 2 49 2 52 1 C51.67 2.32 51.34 3.64 51 5 C50.34 5 49.68 5 49 5 C49 5.66 49 6.32 49 7 C49.99 7.33 50.98 7.66 52 8 C47.71573566 12.52121905 42.80587056 15.57242713 37.5625 18.875 C36.62083984 19.49375 35.67917969 20.1125 34.70898438 20.75 C33.79568359 21.32492188 32.88238281 21.89984375 31.94140625 22.4921875 C31.11326416 23.02183105 30.28512207 23.55147461 29.43188477 24.09716797 C27 25 27 25 24.50878906 24.34008789 C19.96195148 21.91136159 15.57880378 19.26098419 11.1875 16.5625 C10.20845703 15.97662109 9.22941406 15.39074219 8.22070312 14.78710938 C7.29580078 14.21927734 6.37089844 13.65144531 5.41796875 13.06640625 C4.57000732 12.55021729 3.7220459 12.03402832 2.84838867 11.50219727 C2.23842041 11.00647217 1.62845215 10.51074707 1 10 C1 9.01 1 8.02 1 7 C1.66 7 2.32 7 3 7 C3 6.34 3 5.68 3 5 C2.01 4.67 1.02 4.34 0 4 C0 2.68 0 1.36 0 0 Z " fill="#C9C9C9" transform="translate(0,17)"/>
<path d="M0 0 C2.10630111 1.18383347 4.21011017 2.37175153 6.3125 3.5625 C6.94534912 3.91876465 7.57819824 4.2750293 8.23022461 4.64208984 C13.21530092 7.47655672 17.93737076 10.59909827 22.59765625 13.9453125 C24.95704435 15.29693954 24.95704435 15.29693954 27.33251953 14.25585938 C30.04756043 12.97760838 32.53853804 11.55257129 35.08203125 9.9609375 C36.01337891 9.38085938 36.94472656 8.80078125 37.90429688 8.203125 C38.86400391 7.59984375 39.82371094 6.9965625 40.8125 6.375 C42.28106445 5.45847656 42.28106445 5.45847656 43.77929688 4.5234375 C46.18845472 3.01918285 48.59524068 1.5112726 51 0 C51.495 1.485 51.495 1.485 52 3 C48.70588326 5.17661987 45.39789543 7.33011457 42.07568359 9.46362305 C40.39560488 10.5491864 38.72699587 11.65243441 37.05859375 12.75585938 C35.99511719 13.43583984 34.93164062 14.11582031 33.8359375 14.81640625 C32.86188965 15.45006104 31.8878418 16.08371582 30.88427734 16.73657227 C27.33835157 18.28982822 25.67935888 18.08774636 22 17 C19.62231445 15.81665039 19.62231445 15.81665039 17.36328125 14.34765625 C16.53892578 13.81849609 15.71457031 13.28933594 14.86523438 12.74414062 C14.02283203 12.18919922 13.18042969 11.63425781 12.3125 11.0625 C11.45849609 10.51142578 10.60449219 9.96035156 9.72460938 9.39257812 C6.46640234 7.2861332 3.22820153 5.15213435 0 3 C0 2.01 0 1.02 0 0 Z " fill="#757575" transform="translate(0,34)"/>
<path d="M0 0 C0.33 0.66 0.66 1.32 1 2 C1.66128906 2.25394531 2.32257813 2.50789063 3.00390625 2.76953125 C5.68279533 3.8697269 7.79549998 5.07270392 10.21484375 6.63671875 C10.98376953 7.13107422 11.75269531 7.62542969 12.54492188 8.13476562 C14.1426082 9.17163145 15.73379464 10.21858084 17.31835938 11.27539062 C21.81791648 14.15399392 21.81791648 14.15399392 26.9609375 15.20703125 C31.57721279 13.37357487 35.56056402 10.74076544 39.6875 8 C41.37713723 6.89312821 43.0684719 5.78884202 44.76171875 4.6875 C45.8748645 3.95080078 45.8748645 3.95080078 47.01049805 3.19921875 C49 2 49 2 52 1 C51.76171875 2.86328125 51.76171875 2.86328125 51 5 C49.20703125 6.16796875 49.20703125 6.16796875 46.8125 7.1875 C43.48128341 8.70430755 40.41581841 10.32989645 37.3984375 12.390625 C36.47647583 13.01868042 36.47647583 13.01868042 35.53588867 13.65942383 C34.31770999 14.50173863 33.10913324 15.3581376 31.91137695 16.22924805 C27.68642553 19.12399945 27.68642553 19.12399945 24.578125 18.5625 C23.72734375 18.046875 22.8765625 17.53125 22 17 C21.40936768 16.64687744 20.81873535 16.29375488 20.21020508 15.92993164 C18.13953887 14.67216916 16.09986599 13.37345138 14.0625 12.0625 C9.4708871 9.11717968 4.94031899 6.34259257 0 4 C0 2.68 0 1.36 0 0 Z " fill="#808080" transform="translate(0,17)"/>
<path d="M0 0 C2.10630111 1.18383347 4.21011017 2.37175153 6.3125 3.5625 C6.94534912 3.91876465 7.57819824 4.2750293 8.23022461 4.64208984 C13.21530092 7.47655672 17.93737076 10.59909827 22.59765625 13.9453125 C24.95704435 15.29693954 24.95704435 15.29693954 27.33251953 14.25585938 C30.04756043 12.97760838 32.53853804 11.55257129 35.08203125 9.9609375 C36.01337891 9.38085938 36.94472656 8.80078125 37.90429688 8.203125 C38.86400391 7.59984375 39.82371094 6.9965625 40.8125 6.375 C42.28106445 5.45847656 42.28106445 5.45847656 43.77929688 4.5234375 C46.18845472 3.01918285 48.59524068 1.5112726 51 0 C51.495 1.485 51.495 1.485 52 3 C51.11699219 3.49628906 50.23398437 3.99257813 49.32421875 4.50390625 C48.11179848 5.18978487 46.899573 5.87600788 45.6875 6.5625 C44.73822632 7.09689697 44.73822632 7.09689697 43.76977539 7.64208984 C38.78469908 10.47655672 34.06262924 13.59909827 29.40234375 16.9453125 C27 18 27 18 24.6875 17.48828125 C21.05644138 15.47747698 17.5523942 13.30808652 14.0625 11.0625 C9.4708871 8.11717968 4.94031899 5.34259257 0 3 C0 2.01 0 1.02 0 0 Z " fill="#7D7D7D" transform="translate(0,26)"/>
<path d="M0 0 C0.33 0.66 0.66 1.32 1 2 C1.7425 2.28875 2.485 2.5775 3.25 2.875 C6.33778039 4.13818288 8.47888085 5.83904073 11 8 C10.01 8.495 10.01 8.495 9 9 C6.8359375 8.00390625 6.8359375 8.00390625 4.375 6.5625 C3.55773437 6.08941406 2.74046875 5.61632812 1.8984375 5.12890625 C1.27195313 4.75636719 0.64546875 4.38382813 0 4 C0 2.68 0 1.36 0 0 Z " fill="#7D7D7D" transform="translate(0,17)"/>
</svg>
